<?xml version="1.0" standalone="no"?>
<!DOCTYPE svg PUBLIC "-//W3C//DTD SVG 20010904//EN"
 "http://www.w3.org/TR/2001/REC-SVG-20010904/DTD/svg10.dtd">
<svg version="1.0" xmlns="http://www.w3.org/2000/svg"
 width="128.000000pt" height="128.000000pt" viewBox="0 0 128.000000 128.000000"
 preserveAspectRatio="xMidYMid meet">
<metadata>
Created by potrace 1.13, written by Peter Selinger 2001-2015
</metadata>
<g transform="translate(0.000000,128.000000) scale(0.100000,-0.100000)"
fill="#000000" stroke="none">
<path d="M599 1105 c-14 -8 -32 -27 -38 -44 -16 -38 5 -83 48 -100 38 -16 83
5 100 48 17 39 -6 85 -50 100 -18 6 -32 11 -33 11 -1 -1 -13 -7 -27 -15z"/>
<path d="M883 1025 c-42 -18 -68 -70 -59 -117 19 -105 172 -116 205 -15 29 86
-63 169 -146 132z"/>
<path d="M300 970 c-24 -24 -25 -48 -4 -78 19 -27 64 -29 87 -4 24 26 21 68
-5 86 -30 21 -54 20 -78 -4z"/>
<path d="M969 701 c-21 -22 -29 -39 -29 -66 0 -51 44 -95 95 -95 51 0 95 44
95 95 0 27 -8 44 -29 66 -41 40 -91 40 -132 0z"/>
<path d="M204 659 c-19 -22 -13 -43 19 -63 12 -8 21 -5 36 8 26 23 26 38 3 59
-24 22 -35 21 -58 -4z"/>
<path d="M876 394 c-31 -32 -33 -62 -5 -98 25 -32 86 -37 112 -8 27 30 22 87
-9 111 -36 28 -66 26 -98 -5z"/>
<path d="M311 361 c-21 -38 12 -71 50 -50 31 16 22 63 -13 67 -18 2 -30 -3
-37 -17z"/>
<path d="M595 275 c-14 -13 -25 -31 -25 -40 0 -21 44 -65 65 -65 21 0 65 44
65 65 0 21 -44 65 -65 65 -9 0 -27 -11 -40 -25z"/>
</g>
</svg>
